<?xml version="1.0" encoding="utf-8"?>
<!-- Generator: Adobe Illustrator 27.1.1, SVG Export Plug-In . SVG Version: 6.00 Build 0)  -->
<svg version="1.1" id="Camada_1" xmlns="http://www.w3.org/2000/svg" xmlns:xlink="http://www.w3.org/1999/xlink" x="0px" y="0px"
	 viewBox="0 0 410 404" style="enable-background:new 0 0 410 404;" xml:space="preserve">
<style type="text/css">
	.st0{fill:#231F20;}
</style>
<g id="XMLID_556_">
	<path id="XMLID_577_" class="st0" d="M177.3,280.7L177.3,280.7c8.6,0,15.6-7,15.6-15.6V138.9c0-8.6-7-15.6-15.6-15.6l0,0
		c-8.6,0-15.6,7-15.6,15.6v126.2C161.7,273.7,168.7,280.7,177.3,280.7z"/>
	<path id="XMLID_573_" class="st0" d="M122,364.3L122,364.3c8.6,0,15.6-7,15.6-15.6V55.3c0-8.6-7-15.6-15.6-15.6l0,0
		c-8.6,0-15.6,7-15.6,15.6v293.4C106.4,357.3,113.4,364.3,122,364.3z"/>
	<path id="XMLID_569_" class="st0" d="M66.7,253.8L66.7,253.8c8.6,0,15.6-7,15.6-15.6v-72.3c0-8.6-7-15.6-15.6-15.6l0,0
		c-8.6,0-15.6,7-15.6,15.6v72.3C51.1,246.8,58.1,253.8,66.7,253.8z"/>
	<path id="XMLID_565_" class="st0" d="M232.7,378.5L232.7,378.5c8.6,0,15.6-7,15.6-15.6V41.1c0-8.6-7-15.6-15.6-15.6l0,0
		c-8.6,0-15.6,7-15.6,15.6v321.8C217,371.5,224,378.5,232.7,378.5z"/>
	<path id="XMLID_561_" class="st0" d="M288,359.4L288,359.4c8.6,0,15.6-7,15.6-15.6V60.2c0-8.6-7-15.6-15.6-15.6l0,0
		c-8.6,0-15.6,7-15.6,15.6v283.7C272.3,352.5,279.3,359.4,288,359.4z"/>
	<path id="XMLID_557_" class="st0" d="M327.7,160.2v83.7c0,8.6,7,15.6,15.6,15.6l0,0c8.6,0,15.6-7,15.6-15.6v-83.7
		c0-8.6-7-15.6-15.6-15.6l0,0C334.6,144.6,327.7,151.5,327.7,160.2z"/>
</g>
</svg>
